<svg width="24" height="24" viewBox="0 0 24 24" fill="none" xmlns="http://www.w3.org/2000/svg">
    <path fill-rule="evenodd" clip-rule="evenodd" d="M8.55 7.878c.946-.81 1.606-1.375 2.166-1.744.543-.359.918-.483 1.284-.483s.74.124 1.284.483c.56.37 1.22.934 2.165 1.744l1 .857c1.08.926 1.445 1.259 1.64 1.684.196.424.21.918.21 2.34V17c0 .963 0 1.615-.066 2.102-.063.467-.173.677-.314.818-.141.141-.35.251-.818.314-.453.06-1.047.066-1.901.067V16a1.7 1.7 0 0 0-1.7-1.7h-3A1.7 1.7 0 0 0 8.8 16v4.3c-.854 0-1.449-.006-1.901-.067-.467-.063-.677-.173-.818-.314-.142-.141-.251-.351-.314-.818C5.7 18.614 5.7 17.962 5.7 17v-4.24c0-1.422.015-1.917.21-2.341.196-.425.561-.758 1.64-1.684l1-.857zM9.49 21.7H15.05c.901 0 1.647 0 2.239-.08.622-.083 1.177-.266 1.621-.711.445-.445.628-1 .711-1.621.08-.592.08-1.338.08-2.24V12.609c0-1.21 0-2.036-.339-2.775-.34-.738-.966-1.275-1.886-2.062l-.115-.099-1.035-.887c-.902-.773-1.628-1.396-2.27-1.82-.666-.44-1.311-.714-2.055-.714-.744 0-1.39.275-2.056.715-.641.423-1.367 1.046-2.269 1.819l-1.035.887-.115.099c-.92.787-1.547 1.324-1.887 2.062-.34.739-.339 1.565-.338 2.775v4.441c0 .9 0 1.647.08 2.239.083.622.266 1.176.71 1.62.445.446 1 .629 1.622.712.591.08 1.338.08 2.239.08h.54zm4.31-1.4h-3.6V16a.3.3 0 0 1 .3-.3h3a.3.3 0 0 1 .3.3v4.3z" fill="#FCB537"/>
</svg>
