<svg width="24" height="24" viewBox="0 0 24 24" fill="none" xmlns="http://www.w3.org/2000/svg">
    <path fill-rule="evenodd" clip-rule="evenodd" d="M6.561 2.3h-.035c-.344 0-.662 0-.925.031-.291.035-.593.115-.867.329-.273.213-.424.486-.528.76a8.305 8.305 0 0 0-.255.89l-.009.035-1.207 4.83c-.046.18-.086.34-.112.475-.027.14-.05.297-.038.465a1.7 1.7 0 0 0 1.173 1.502c.16.052.32.069.464.076l.078.003V20A1.7 1.7 0 0 0 6 21.7h12a1.7 1.7 0 0 0 1.7-1.7v-8.304c.027 0 .053-.002.077-.003.144-.007.304-.024.465-.076a1.7 1.7 0 0 0 1.173-1.502 1.773 1.773 0 0 0-.038-.465 10.072 10.072 0 0 0-.112-.475L20.05 4.31c-.083-.334-.16-.642-.255-.89-.104-.274-.255-.547-.529-.76-.273-.214-.575-.294-.866-.329a8.306 8.306 0 0 0-.925-.031H6.561zM18.3 11.668a2.159 2.159 0 0 1-.218-.039 2.7 2.7 0 0 1-1.582-1.056 2.7 2.7 0 0 1-2.132 1.126h-.236A2.7 2.7 0 0 1 12 10.573 2.7 2.7 0 0 1 9.868 11.7h-.236A2.7 2.7 0 0 1 7.5 10.573a2.7 2.7 0 0 1-1.582 1.056c-.07.017-.143.03-.218.04v8.33a.3.3 0 0 0 .3.3h2.8V16a1.7 1.7 0 0 1 1.7-1.7h3a1.7 1.7 0 0 1 1.7 1.7v4.3H18a.3.3 0 0 0 .3-.3v-8.331zM5.596 3.763a.086.086 0 0 1 .028-.013.697.697 0 0 1 .143-.029c.17-.02.402-.021.794-.021h10.877c.392 0 .625.001.795.021.078.01.12.02.143.029.019.006.025.01.028.013.003.003.009.007.02.024.013.02.034.059.062.132.061.16.119.385.213.766l1.204 4.814c.05.2.081.326.1.42.014.071.015.099.015.103a.3.3 0 0 1-.204.262.768.768 0 0 1-.107.01c-.099.006-.232.006-.443.006-.572 0-.739-.005-.865-.034a1.3 1.3 0 0 1-.905-.767c-.05-.12-.081-.279-.173-.83l-.002-.01a5.823 5.823 0 0 0-.03-.177 1.23 1.23 0 0 0-.026-.104v-.003a.777.777 0 0 0-.113-.234.8.8 0 0 0-1.3 0 .776.776 0 0 0-.113.234v.003a1.23 1.23 0 0 0-.026.104c-.01.05-.02.114-.03.178l-.084.499-.014.084a1.3 1.3 0 0 1-1.247 1.056h-.172a1.3 1.3 0 0 1-1.261-1.14l-.084-.5a5.82 5.82 0 0 0-.03-.177 1.23 1.23 0 0 0-.026-.104v-.003a.777.777 0 0 0-.113-.234.8.8 0 0 0-1.3 0 .776.776 0 0 0-.113.234v.003a1.23 1.23 0 0 0-.026.104c-.01.05-.02.114-.03.178l-.084.499-.014.084A1.3 1.3 0 0 1 9.836 10.3h-.172a1.3 1.3 0 0 1-1.261-1.14l-.083-.5a5.957 5.957 0 0 0-.032-.177 1.259 1.259 0 0 0-.025-.104v-.003c-.008-.025-.038-.129-.113-.234a.8.8 0 0 0-1.3 0c-.075.105-.105.21-.113.234v.003c-.012.04-.02.078-.026.104-.01.05-.02.114-.03.178l-.002.01c-.092.55-.123.71-.173.829a1.3 1.3 0 0 1-.905.767c-.126.03-.294.034-.865.034a10 10 0 0 1-.443-.005.763.763 0 0 1-.107-.01.3.3 0 0 1-.204-.263c0-.004 0-.032.015-.102.018-.095.05-.22.1-.421L5.3 4.685c.095-.38.153-.606.214-.766a.697.697 0 0 1 .062-.132.087.087 0 0 1 .02-.024zM13.8 20.3h-3.6V16a.3.3 0 0 1 .3-.3h3a.3.3 0 0 1 .3.3v4.3z" fill="#fcb537"/>
</svg>
