<svg width="320" height="320" viewBox="0 0 320 320" fill="none" xmlns="http://www.w3.org/2000/svg">
    <path d="M51.91 99.44c-2.912-8.342 1.49-17.466 9.833-20.379L171.26 40.827c8.343-2.913 17.467 1.49 20.38 9.832l60.648 173.718c2.912 8.343-1.49 17.467-9.833 20.379l-109.517 38.235c-8.343 2.912-17.467-1.49-20.38-9.832L51.91 99.441z" fill="#43936C"/>
    <path d="M67.955 103.329c-2.184-6.257 1.117-13.1 7.374-15.284l94.412-32.961c6.257-2.184 13.101 1.117 15.285 7.374l52.737 151.059c2.184 6.257-1.117 13.1-7.374 15.285l-94.412 32.96c-6.257 2.185-13.1-1.117-15.285-7.374L67.955 103.329z" fill="#F4F4F4"/>
    <path opacity=".7" fill-rule="evenodd" clip-rule="evenodd" d="M93.659 121.938a1 1 0 0 1 1.273.614l18.129 51.927 82.138-28.676a1 1 0 0 1 .659 1.888l-83.082 29.006a1 1 0 0 1-1.274-.615l-18.458-52.87a1 1 0 0 1 .615-1.274z" fill="#0A4D3C"/>
    <path opacity=".7" fill-rule="evenodd" clip-rule="evenodd" d="M172.358 102.077a1.999 1.999 0 0 1 1.786 2.193c-.604 5.895-2.135 14.397-4.834 20.567-1.327 3.034-3.085 5.858-5.46 7.346-1.242.778-2.667 1.197-4.226 1.058-1.535-.137-3.025-.799-4.459-1.879-1.422-1.07-2.38-1.494-2.982-1.617-.5-.103-.707.001-.87.123-.26.195-.598.621-.982 1.46-.375.82-.705 1.829-1.069 3.014l-.18.588c-.647 2.128-1.449 4.763-2.849 6.727-.807 1.129-1.874 2.141-3.316 2.738-1.449.6-3.094.707-4.921.331-3.103-.639-4.946-.96-6.245-.906-.596.025-.984.129-1.276.269-.288.139-.591.366-.943.788-.781.934-1.573 2.514-2.824 5.317a320.07 320.07 0 0 0-.791 1.785c-1.093 2.474-2.461 5.573-4.297 9.361a2 2 0 0 1-3.6-1.744c1.802-3.718 3.135-6.738 4.227-9.209.284-.644.553-1.252.808-1.824 1.196-2.678 2.203-4.81 3.407-6.251.639-.765 1.375-1.392 2.277-1.826.897-.432 1.848-.621 2.847-.662 1.89-.079 4.257.374 7.216.984 1.205.248 2.013.128 2.584-.108.578-.24 1.098-.676 1.59-1.367 1.001-1.402 1.617-3.41 2.326-5.721l.137-.447c.36-1.171.757-2.413 1.254-3.501.489-1.069 1.17-2.208 2.219-2.996 1.147-.86 2.541-1.158 4.077-.841 1.435.295 2.949 1.111 4.581 2.34 1.009.759 1.806 1.036 2.41 1.09.58.052 1.144-.087 1.747-.464 1.314-.824 2.67-2.704 3.919-5.559 2.454-5.611 3.931-13.636 4.519-19.372a1.999 1.999 0 0 1 2.193-1.785z" fill="#0A4D3C"/>
    <path d="M87.519 67.944a6 6 0 0 1 3.687-7.642l49.094-17.14a6 6 0 1 1 3.955 11.33l-49.094 17.14a6 6 0 0 1-7.642-3.688z" fill="#DB5733"/>
    <path opacity=".7" fill-rule="evenodd" clip-rule="evenodd" d="M136.781 196.915a2 2 0 0 1 1.229-2.548l64.2-22.413a2 2 0 0 1 1.319 3.776l-64.2 22.414a2.001 2.001 0 0 1-2.548-1.229zM142.055 212.02a2 2 0 0 1 1.229-2.547l64.2-22.414a2 2 0 0 1 1.318 3.777l-64.2 22.413a2 2 0 0 1-2.547-1.229zM147.329 227.126a2 2 0 0 1 1.229-2.548l64.2-22.413a2 2 0 1 1 1.318 3.776l-64.2 22.414a2 2 0 0 1-2.547-1.229z" fill="#0A4D3C"/>
    <path opacity=".7" d="M121.412 201.432a3.2 3.2 0 0 1 1.966-4.076l1.511-.527a3.201 3.201 0 0 1 4.076 1.966l.527 1.511a3.2 3.2 0 0 1-1.966 4.076l-1.511.527a3.2 3.2 0 0 1-4.076-1.966l-.527-1.511zM126.685 216.539a3.2 3.2 0 0 1 1.967-4.076l1.51-.528a3.2 3.2 0 0 1 4.076 1.967l.527 1.51a3.199 3.199 0 0 1-1.966 4.076l-1.511.528a3.2 3.2 0 0 1-4.076-1.967l-.527-1.51zM131.959 231.644a3.201 3.201 0 0 1 1.966-4.076l1.511-.527a3.2 3.2 0 0 1 4.076 1.966l.527 1.511a3.2 3.2 0 0 1-1.966 4.076l-1.511.527a3.2 3.2 0 0 1-4.076-1.966l-.527-1.511z" fill="#0A4D3C"/>
    <path fill-rule="evenodd" clip-rule="evenodd" d="M148.106 46.478a2 2 0 0 1-.839-1.636 4 4 0 0 0-5.32-3.792L92.853 58.19a4 4 0 0 0-1.804 6.278 2 2 0 0 1-.902 3.14l-26.757 9.34c-7.3 2.55-11.152 10.533-8.603 17.833l60.647 173.718c2.549 7.3 10.533 11.151 17.832 8.603l109.518-38.234c7.3-2.549 11.152-10.533 8.603-17.833L190.74 47.318c-2.549-7.3-10.533-11.152-17.832-8.604l-22.982 8.023a2 2 0 0 1-1.82-.26zM89.488 65.719a6 6 0 0 1 2.706-9.418l49.094-17.14a6 6 0 0 1 7.979 5.688l22.981-8.023c8.343-2.912 17.467 1.49 20.38 9.832l60.648 173.718c2.912 8.343-1.49 17.467-9.833 20.38L133.926 278.99c-8.343 2.913-17.467-1.489-20.38-9.832L52.898 95.44c-2.912-8.343 1.49-17.467 9.833-20.38l26.757-9.34z" fill="#070707"/>
    <path d="M195.423 44.765a8 8 0 0 1 8.3-8.037l12.233.459c4.594.172 8.098 4.172 7.664 8.75l-8.108 85.471a8 8 0 0 1-8.264 7.239l-3.667-.138a8 8 0 0 1-7.7-7.951l-.458-85.793z" fill="#FCB537"/>
    <circle cx="205.36" cy="157.964" r="9.687" transform="rotate(2.149 205.36 157.964)" fill="#FCB537"/>
    <path d="M247.348 55.522c.899-4.463 5.337-7.277 9.757-6.186l11.885 2.93c4.464 1.102 7.084 5.73 5.73 10.123l-25.28 82.05a8 8 0 0 1-9.561 5.411l-3.563-.878a8 8 0 0 1-5.926-9.349l16.958-84.101z" fill="#FCB537"/>
    <circle cx="234.111" cy="168.383" transform="rotate(13.854 234.111 168.383)" fill="#FCB537" r="9.687"/>
    <path fill-rule="evenodd" clip-rule="evenodd" d="m218.305 39.557-12.206-.93a6 6 0 0 0-6.452 5.785l-2.842 85.747a6 6 0 0 0 5.541 6.181l3.659.279a6 6 0 0 0 6.403-5.187l11.388-85.097a6 6 0 0 0-5.491-6.778zm-12.054-2.924a8 8 0 0 0-8.603 7.712l-2.842 85.748a8 8 0 0 0 7.388 8.241l3.66.279a8 8 0 0 0 8.536-6.916l11.389-85.096c.609-4.557-2.738-8.69-7.323-9.039l-12.205-.928zM202.64 165.509a7.687 7.687 0 1 0 1.165-15.33 7.687 7.687 0 0 0-1.165 15.33zm-.152 1.994c5.335.406 9.989-3.59 10.395-8.924.406-5.335-3.59-9.989-8.924-10.395-5.335-.406-9.989 3.59-10.395 8.924-.406 5.335 3.59 9.989 8.924 10.395zM270.809 55.064l-11.764-3.386a6 6 0 0 0-7.491 4.355l-20.179 83.387a6 6 0 0 0 4.172 7.177l3.526 1.015a6 6 0 0 0 7.322-3.78l28.416-81.016a6 6 0 0 0-4.002-7.752zm-11.211-5.308a8 8 0 0 0-9.988 5.806l-20.179 83.387a8 8 0 0 0 5.562 9.57l3.527 1.015a8 8 0 0 0 9.762-5.04l28.416-81.017c1.522-4.338-.918-9.063-5.336-10.335l-11.764-3.386zM229.917 175.218a7.688 7.688 0 1 0 4.252-14.776 7.688 7.688 0 0 0-4.252 14.776zm-.553 1.922c5.141 1.48 10.509-1.489 11.989-6.63 1.479-5.141-1.489-10.509-6.63-11.989-5.142-1.48-10.509 1.489-11.989 6.63-1.48 5.141 1.488 10.509 6.63 11.989z" fill="#070707"/>
</svg>
