<svg width="24" height="24" viewBox="0 0 24 24" fill="none" xmlns="http://www.w3.org/2000/svg">
    <path fill-rule="evenodd" clip-rule="evenodd" d="M10.385 2.841a9.3 9.3 0 1 1 3.23 18.318 9.3 9.3 0 0 1-3.23-18.318zm3.931-1.288a10.7 10.7 0 1 0-4.632 20.893 10.7 10.7 0 0 0 4.632-20.893z" fill="#27A0E3"/>
    <path fill-rule="evenodd" clip-rule="evenodd" d="M12 10.3a.7.7 0 0 1 .7.7v6a.7.7 0 1 1-1.4 0v-6a.7.7 0 0 1 .7-.7z" fill="#27A0E3"/>
    <path d="M13 8a1 1 0 1 1-2 0 1 1 0 0 1 2 0z" fill="#27A0E3"/>
</svg>
