<svg width="24" height="24" viewBox="0 0 24 24" fill="none" xmlns="http://www.w3.org/2000/svg">
    <path fill-rule="evenodd" clip-rule="evenodd" d="M6.597 3.3h10.806c.734 0 1.342 0 1.83.054.512.057.978.18 1.385.484a2.7 2.7 0 0 1 .543.544c.305.407.428.873.485 1.384.054.489.054 1.097.054 1.83v.055c0 .062 0 .156-.01.242a.898.898 0 0 1-.35.627.898.898 0 0 1-.447.17c-.086.01-.18.01-.242.01H19.7v7.349c0 .9 0 1.647-.08 2.239-.083.622-.266 1.176-.71 1.621-.445.445-1 .628-1.622.711-.592.08-1.338.08-2.239.08H8.951c-.901 0-1.647 0-2.239-.08-.622-.083-1.177-.266-1.621-.711-.445-.445-.628-1-.712-1.621-.08-.592-.08-1.338-.079-2.24V8.7H3.349c-.062 0-.157 0-.242-.01a.898.898 0 0 1-.628-.35.898.898 0 0 1-.17-.447c-.01-.086-.01-.18-.01-.242l.001-.015v-.04c0-.733 0-1.341.054-1.83.057-.511.18-.977.484-1.384a2.7 2.7 0 0 1 .544-.544c.407-.305.873-.427 1.384-.484.49-.054 1.097-.054 1.83-.054zM5.7 8.7V16c0 .962.001 1.614.067 2.101.063.467.173.677.314.818.14.141.35.251.818.314.487.065 1.138.067 2.101.067h6c.963 0 1.614-.002 2.101-.067.467-.063.677-.173.818-.314.141-.141.251-.35.314-.818.066-.487.067-1.139.067-2.101V8.7H5.7zm-.78-3.955c-.389.044-.574.12-.7.214a1.3 1.3 0 0 0-.26.262c-.095.125-.171.31-.214.7-.038.341-.045.775-.046 1.379h16.6c-.001-.604-.008-1.038-.046-1.38-.043-.39-.12-.574-.213-.7a1.3 1.3 0 0 0-.262-.26c-.126-.095-.31-.171-.7-.215-.402-.044-.932-.045-1.715-.045H6.636c-.783 0-1.313 0-1.716.045z" fill="#fcb537cc"/>
    <path fill-rule="evenodd" clip-rule="evenodd" d="M9.3 16a.7.7 0 0 1 .7-.7h4a.7.7 0 1 1 0 1.4h-4a.7.7 0 0 1-.7-.7z" fill="#fcb537cc"/>
</svg>
