<svg width="24" height="24" viewBox="0 0 24 24" fill="none" xmlns="http://www.w3.org/2000/svg">
    <path fill-rule="evenodd" clip-rule="evenodd" d="M6.437 6.453a.7.7 0 0 1 .11.984L3.457 11.3H11a.7.7 0 1 1 0 1.4H3.456l3.09 3.863a.7.7 0 0 1-1.093.874l-4-5a.7.7 0 0 1 0-.874l4-5a.7.7 0 0 1 .984-.11z" fill="#fff"/>
    <path fill-rule="evenodd" clip-rule="evenodd" d="M18.812 3.369c-.882.021-2.04.212-3.683.486l-1.671.279c-.816.136-1.364.228-1.77.35-.389.115-.564.233-.68.37-.116.137-.204.33-.254.73-.053.422-.054.978-.054 1.805v.743H9.3v-.787c0-.772 0-1.415.065-1.934.068-.547.217-1.039.575-1.462.358-.422.819-.65 1.348-.807.5-.15 1.135-.255 1.896-.382l1.77-.295c1.575-.262 2.83-.472 3.824-.496 1.024-.025 1.897.142 2.614.75.717.607 1.024 1.44 1.169 2.455.14.983.14 2.257.14 3.853v5.947c0 1.596 0 2.87-.14 3.853-.145 1.014-.452 1.848-1.17 2.455-.716.608-1.589.774-2.613.75-.993-.025-2.25-.234-3.824-.496l-1.77-.295c-.761-.127-1.396-.233-1.896-.382-.529-.157-.99-.385-1.348-.808-.358-.422-.507-.915-.575-1.462-.065-.518-.065-1.162-.065-1.933v-.59h1.4v.546c0 .827.001 1.383.054 1.804.05.401.138.593.254.73.116.137.291.256.68.371.406.121.954.214 1.77.35l1.67.278c1.643.274 2.802.465 3.684.487.862.02 1.33-.127 1.675-.418.344-.291.566-.73.687-1.584.124-.873.126-2.047.126-3.712V9.082c0-1.665-.002-2.84-.126-3.713-.12-.854-.343-1.292-.687-1.583-.344-.292-.813-.44-1.675-.418z" fill="#fff"/>
</svg>
