<svg width="24" height="24" viewBox="0 0 24 24" fill="none" xmlns="http://www.w3.org/2000/svg">
    <path fill-rule="evenodd" clip-rule="evenodd" d="M6.597 3.3h10.806c.734 0 1.342 0 1.83.054.512.057.978.18 1.385.485a2.7 2.7 0 0 1 .543.543c.305.407.428.873.485 1.384.054.49.054 1.097.054 1.83v.055c0 .062 0 .156-.01.242a.899.899 0 0 1-.35.628.898.898 0 0 1-.447.17c-.086.01-.18.01-.242.01l-.015-.001H19.7v7.35c0 .9 0 1.646-.08 2.238-.083.622-.266 1.177-.711 1.621-.445.445-1 .628-1.621.712-.592.08-1.338.08-2.24.08H8.952c-.901 0-1.648 0-2.239-.08-.622-.084-1.177-.267-1.621-.712-.445-.444-.628-.999-.712-1.621-.08-.591-.08-1.338-.08-2.239V8.7H3.349c-.061 0-.156 0-.24-.01a.898.898 0 0 1-.629-.35.898.898 0 0 1-.17-.447c-.01-.085-.01-.18-.01-.242v-.055c0-.733 0-1.34.055-1.83.057-.511.18-.977.484-1.384a2.7 2.7 0 0 1 .544-.543c.407-.305.873-.428 1.384-.485.489-.054 1.097-.054 1.83-.054zM5.7 8.7V16c0 .963.001 1.614.067 2.101.063.467.172.677.314.818.14.141.35.251.818.314.487.066 1.138.067 2.1.067h6c.963 0 1.615-.001 2.102-.067.467-.063.677-.173.818-.314.141-.14.251-.35.314-.818.065-.487.067-1.138.067-2.101V8.7H5.7zm-.78-3.954c-.39.043-.574.12-.7.213a1.3 1.3 0 0 0-.26.262c-.095.126-.171.31-.215.7-.037.342-.044.776-.045 1.379h16.6c-.002-.603-.008-1.037-.046-1.38-.043-.389-.12-.573-.213-.699a1.301 1.301 0 0 0-.262-.262c-.126-.094-.31-.17-.7-.213-.402-.045-.932-.046-1.716-.046H6.636c-.783 0-1.313.001-1.716.046z" fill="#B24629"/>
    <path fill-rule="evenodd" clip-rule="evenodd" d="M9.3 16a.7.7 0 0 1 .7-.7h4a.7.7 0 1 1 0 1.4h-4a.7.7 0 0 1-.7-.7z" fill="#B24629"/>
</svg>
