<svg width="24" height="24" viewBox="0 0 24 24" fill="none" xmlns="http://www.w3.org/2000/svg">
    <path fill-rule="evenodd" clip-rule="evenodd" d="M9.3 19a.7.7 0 0 1 .7-.7h4a.7.7 0 1 1 0 1.4h-4a.7.7 0 0 1-.7-.7z" fill="#fff"/>
    <path fill-rule="evenodd" clip-rule="evenodd" d="M7.988 6.222c1.078-.907 1.839-1.545 2.484-1.963.63-.408 1.08-.56 1.528-.56.448 0 .898.152 1.527.56.646.418 1.406 1.056 2.485 1.963l1.143.962c1.228 1.033 1.664 1.42 1.897 1.917.233.495.248 1.069.248 2.656v4.757c0 1.077-.002 1.814-.077 2.366-.073.53-.202.786-.383.963-.182.18-.448.308-.995.38a5.435 5.435 0 0 1-.145.018V12a1.7 1.7 0 0 0-1.7-1.7H8A1.7 1.7 0 0 0 6.3 12v8.24a5.438 5.438 0 0 1-.145-.016c-.547-.073-.813-.202-.995-.38-.181-.178-.31-.433-.383-.964-.076-.552-.077-1.289-.077-2.366v-4.756c0-1.588.015-2.162.247-2.657.233-.497.67-.884 1.898-1.917l1.143-.962zM6.833 21.68a.703.703 0 0 0 .29.01c.42.01.887.01 1.4.01h6.955c.512 0 .978 0 1.4-.01a.695.695 0 0 0 .289-.01c.314-.013.601-.034.861-.068.698-.092 1.306-.292 1.793-.77.488-.48.694-1.081.789-1.772.09-.659.09-1.492.09-2.506V11.6c0-1.369 0-2.28-.38-3.092-.38-.81-1.082-1.401-2.142-2.292l-.122-.103-1.179-.991c-1.034-.87-1.86-1.565-2.588-2.037-.753-.488-1.47-.784-2.29-.784-.819 0-1.535.296-2.288.784-.728.472-1.554 1.167-2.588 2.037l-1.18.991-.121.103c-1.06.891-1.762 1.481-2.142 2.292-.381.812-.38 1.723-.38 3.092v4.965c0 1.014 0 1.847.09 2.506.095.69.3 1.293.789 1.772.487.478 1.095.678 1.793.77.26.034.546.055.86.068zm9.467-1.382c-.264.002-.554.002-.872.002H8.572c-.318 0-.607 0-.871-.002V12a.3.3 0 0 1 .3-.3h8a.3.3 0 0 1 .3.3v8.298z" fill="#fff"/>
</svg>
