<svg width="24" height="24" viewBox="0 0 24 24" fill="none" xmlns="http://www.w3.org/2000/svg">
    <path d="m12.398 17.804.322.621-.322-.621zm-.796 0-.322.621.322-.621zM18.3 9c0 2.255-1.148 4.096-2.542 5.502-1.393 1.405-2.972 2.312-3.682 2.68l.644 1.243c.773-.4 2.495-1.387 4.032-2.938C18.29 13.938 19.7 11.763 19.7 9h-1.4zM12 2.7A6.3 6.3 0 0 1 18.3 9h1.4A7.7 7.7 0 0 0 12 1.3v1.4zM5.7 9A6.3 6.3 0 0 1 12 2.7V1.3A7.7 7.7 0 0 0 4.3 9h1.4zm6.224 8.183c-.71-.369-2.29-1.276-3.682-2.681C6.848 13.096 5.7 11.254 5.7 9H4.3c0 2.762 1.411 4.938 2.948 6.488 1.537 1.55 3.259 2.537 4.032 2.937l.644-1.242zm.152 0a.155.155 0 0 1-.152 0l-.644 1.242c.455.236.985.236 1.44 0l-.644-1.242zM14.3 9a2.3 2.3 0 0 1-2.3 2.3v1.4A3.7 3.7 0 0 0 15.7 9h-1.4zM12 6.7A2.3 2.3 0 0 1 14.3 9h1.4A3.7 3.7 0 0 0 12 5.3v1.4zM9.7 9A2.3 2.3 0 0 1 12 6.7V5.3A3.7 3.7 0 0 0 8.3 9h1.4zm2.3 2.3A2.3 2.3 0 0 1 9.7 9H8.3a3.7 3.7 0 0 0 3.7 3.7v-1.4z" fill="#5A5A5A"/>
    <path d="M19.794 17.5c.79.456 1.206.973 1.206 1.5s-.416 1.044-1.206 1.5c-.79.456-1.926.835-3.294 1.098-1.368.263-2.92.402-4.5.402s-3.132-.139-4.5-.402c-1.368-.263-2.504-.642-3.294-1.098C3.416 20.044 3 19.527 3 19s.416-1.044 1.206-1.5" stroke="#5A5A5A" stroke-width="1.4" stroke-linecap="round"/>
</svg>
