<svg width="1440" height="415" viewBox="0 0 1440 415" fill="none" xmlns="http://www.w3.org/2000/svg">
    <path fill="#B24629" d="M0 0h1440v415H0z"/>
    <mask id="a" style="mask-type:alpha" maskUnits="userSpaceOnUse" x="0" y="0" width="1440" height="415">
        <path fill="#fff" d="M0 0h1440v415H0z"/>
    </mask>
    <g mask="url(#a)" fill-rule="evenodd" clip-rule="evenodd" fill="#FCB537">
        <path d="M32.302 208.283c30.064-2.728 60.087 14.63 80.141 37.215 18.208 20.505 12.305 51.513 21.572 77.332 9.73 27.11 35.807 48.439 33.884 77.182-2.117 31.638-19.409 62.05-44.496 81.411-25.44 19.633-59.03 25.091-91.1 23.237-30.752-1.777-59.947-13.794-83.767-33.342-22.832-18.738-38.942-44.503-46.043-73.189-6.758-27.299-3.442-56.107 7.636-81.954 10.386-24.233 32.181-39.588 51.935-57.034 22.212-19.615 40.738-48.182 70.238-50.858zM214.568 213.395c-2.833 8.904-9.026 16.814-16.796 22.001-7.624 5.09-17.136 6.446-26.295 6.765-8.381.292-17.013-.911-24.333-5.002-6.769-3.783-9.678-11.795-15.293-17.144-5.118-4.875-11.345-8.082-16.389-13.033-6.725-6.6-18.37-11.623-18.335-21.048.035-9.415 12.633-13.512 18.489-20.886 4.612-5.808 6.762-13.352 12.465-18.093 5.758-4.788 12.752-8.802 20.233-9.093 7.313-.284 13.555 4.763 20.336 7.514 5.894 2.391 11.534 4.805 17.192 7.709 6.775 3.477 14.768 5.285 19.597 11.174 5.065 6.176 6.409 14.464 7.869 22.319 1.655 8.909 4.009 18.181 1.26 26.817zM1074.51-129.003c24.39.81 48.82 1.671 71.48 10.696 23.43 9.331 46.31 22.234 61.59 42.293 15.19 19.938 22.07 45.239 24.12 70.215 1.94 23.548-6.02 46.167-12.69 68.832-6.37 21.649-11.46 44.223-25.74 61.702-14.23 17.41-34.86 27.682-55.17 37.328-20.24 9.614-41.41 15.851-63.59 19.073-24.44 3.551-50.57 10.772-73.16.794-22.628-9.993-33.479-35.232-48.787-54.653-15.233-19.326-36.542-35.82-41.521-59.916-4.97-24.048 9.17-47.313 14.403-71.305 5.28-24.212 3.505-50.522 16.737-71.477 13.606-21.55 34.893-38.149 58.518-47.716 23.17-9.38 48.83-6.697 73.81-5.866z"/>
    </g>
</svg>
