<svg width="24" height="24" viewBox="0 0 24 24" fill="none" xmlns="http://www.w3.org/2000/svg">
<path fill-rule="evenodd" clip-rule="evenodd" d="M9.01424 6.70005C8.90827 6.70005 8.81017 6.75595 8.75615 6.84711L7.55935 8.86671C7.25323 9.38328 6.69731 9.70005 6.09685 9.70005H4.99999C4.8343 9.70005 4.69999 9.83436 4.69999 10V17C4.69999 17.1657 4.8343 17.3 4.99999 17.3H19C19.1657 17.3 19.3 17.1657 19.3 17V10C19.3 9.83436 19.1657 9.70005 19 9.70005H17.9031C17.3027 9.70005 16.7467 9.38328 16.4406 8.86671L15.2438 6.84711C15.1898 6.75595 15.0917 6.70005 14.9857 6.70005H9.01424ZM7.55174 6.13338C7.85786 5.61681 8.41378 5.30005 9.01424 5.30005H14.9857C15.5862 5.30005 16.1421 5.61681 16.4482 6.13338L17.645 8.15299C17.6991 8.24415 17.7972 8.30005 17.9031 8.30005H19C19.9389 8.30005 20.7 9.06116 20.7 10V17C20.7 17.9389 19.9389 18.7 19 18.7H4.99999C4.0611 18.7 3.29999 17.9389 3.29999 17V10C3.29999 9.06116 4.0611 8.30005 4.99999 8.30005H6.09685C6.20281 8.30005 6.30092 8.24415 6.35494 8.15299L7.55174 6.13338Z" fill="#8D280C"/>
<path fill-rule="evenodd" clip-rule="evenodd" d="M12 14.6C12.8837 14.6 13.6 13.8837 13.6 13C13.6 12.1163 12.8837 11.4 12 11.4C11.1163 11.4 10.4 12.1163 10.4 13C10.4 13.8837 11.1163 14.6 12 14.6ZM12 16C13.6569 16 15 14.6569 15 13C15 11.3431 13.6569 10 12 10C10.3431 10 9 11.3431 9 13C9 14.6569 10.3431 16 12 16Z" fill="#8D280C"/>
</svg>
