<svg width="160" height="160" viewBox="0 0 160 160" fill="none" xmlns="http://www.w3.org/2000/svg">
    <path d="M40.016 130.541 23.354 83.413a1 1 0 0 1 .997-1.331l108.715 5.925a1 1 0 0 1 .834 1.46l-24.15 46.54a1.001 1.001 0 0 1-.966.536l-67.904-5.339a1 1 0 0 1-.864-.663z" fill="#FCB537"/>
    <path d="m140.193 80.511-2.252 7.45c-.134.44-.551.733-1.01.708L19.846 82.457a1 1 0 0 1-.939-.874l-.867-6.921a1 1 0 0 1 1.04-1.123l120.203 5.684a1 1 0 0 1 .91 1.288z" fill="#0A4D3C"/>
    <path fill-rule="evenodd" clip-rule="evenodd" d="M14.191 70.788a.5.5 0 0 1 .39-.16l122.673 5.801a.499.499 0 0 1 .455.644l-2.851 9.428a.5.5 0 0 1-.539.351l-3.749-.453-25.008 48.195a.498.498 0 0 1-.483.268l-69.212-5.441a.499.499 0 0 1-.432-.331L18.305 80.844l-.069-.1-2.586-.187a.5.5 0 0 1-.47-.437l-1.119-8.93a.5.5 0 0 1 .13-.402zm5.14 9.955 16.937 47.707 68.559 5.39 24.657-47.52-110.152-5.577zm-4.203-9.088.993 7.924 114.19 5.782c.012 0 .024.002.035.003l3.676.445 2.544-8.411-121.438-5.743z" fill="#070707"/>
    <path fill-rule="evenodd" clip-rule="evenodd" d="M40.791 88.504a.5.5 0 0 1 .56.432l.544 4.214 10.763.888-.302-4a.5.5 0 1 1 .997-.076l.314 4.159 11.382.939V91a.5.5 0 1 1 1 0v4.142l12.664 1.045.472-4.047a.5.5 0 0 1 .994.116l-.469 4.013 12.756 1.052.995-4.007a.5.5 0 0 1 .97.241l-.956 3.85 12.754 1.05 1.515-3.962a.5.5 0 1 1 .934.357l-1.411 3.692 8.676.715a.5.5 0 0 1-.082.997l-8.966-.74-4.185 10.949 7.651.578a.501.501 0 0 1-.076.998l-7.947-.601-3.7 9.678 7.016.594a.5.5 0 1 1-.084.996l-7.303-.618-1.945 5.09a.5.5 0 0 1-.934-.357L97.23 122l-9.663-.817-1.227 4.937a.5.5 0 1 1-.97-.241l1.188-4.782-9.65-.817-.557 4.778a.5.5 0 0 1-.993-.116l.554-4.746-9.863-.835v4.841a.5.5 0 0 1-1 0v-4.925l-9.546-.808.374 4.953a.5.5 0 0 1-.997.076l-.386-5.115-9.445-.799.654 5.07a.5.5 0 1 1-.991.128l-.683-5.284-5.687-.482a.5.5 0 1 1 .084-.996l5.472.463-1.233-9.553-7.67-.58a.499.499 0 1 1 .075-.997l7.465.564-1.528-11.837-7.63-.629a.5.5 0 0 1 .081-.997l7.418.612-.517-4.002a.5.5 0 0 1 .432-.56zm1.235 5.66 1.527 11.83 10.064.76-.883-11.707-10.708-.883zm11.717.967.883 11.7 10.423.787V96.063l-11.306-.932zm12.306 1.015v11.548l11.223.848 1.325-11.362-12.547-1.034zm13.545 1.117-1.324 11.354 11.179.845 2.772-11.158-12.627-1.041zm13.637 1.124-2.77 11.151 11.209.847 4.187-10.956-12.626-1.042zm8.066 12.973-11.081-.838-2.405 9.678 9.79.828 3.696-9.668zm-14.495 8.754 2.402-9.668-11.05-.835-1.13 9.676 9.778.827zm-10.774-.912 1.128-9.666-11.107-.839v9.661l9.979.844zm-10.979-.929v-9.652l-10.347-.782.725 9.62 9.622.814zm-10.631-.9-.725-9.61-10.01-.756 1.235 9.562 9.5.804z" fill="#070707"/>
    <rect x="122.581" y="38" width="8" height="64" rx="4" transform="rotate(50.457 122.581 38)" fill="#0A4D3C"/>
    <path fill-rule="evenodd" clip-rule="evenodd" d="M117.178 40.16a4.5 4.5 0 1 1 5.73 6.941L79.724 82.754a4.5 4.5 0 1 1-5.73-6.94l43.184-35.653zm5.564 1.243a3.5 3.5 0 0 0-4.927-.471L74.63 76.585a3.5 3.5 0 0 0 4.457 5.398l43.184-35.653a3.5 3.5 0 0 0 .471-4.927z" fill="#070707"/>
    <path d="m20.425 37.335 30.71 20.23c.204.134.425-.143.249-.311L24.992 31.99a.2.2 0 0 0-.29.014l-4.319 5.034a.2.2 0 0 0 .042.297z" fill="#EF8943"/>
    <path fill-rule="evenodd" clip-rule="evenodd" d="M25.875 33.344a.5.5 0 0 1 .37.138l28.136 26.933a.5.5 0 0 1-.621.78L21.02 39.626a.5.5 0 0 1-.104-.743l4.605-5.367a.5.5 0 0 1 .354-.173zm-3.83 5.76L49.71 57.33 25.936 34.57l-3.891 4.535z" fill="#070707"/>
    <path d="m43.48 16.839 15.89 35.323c.1.222.434.107.376-.13L50.54 14.674a.2.2 0 0 0-.252-.143l-6.683 2.034a.2.2 0 0 0-.124.274z" fill="#EF8943"/>
    <path fill-rule="evenodd" clip-rule="evenodd" d="M51.023 16.754c.127.072.22.19.257.328l10.538 38.955a.49.49 0 0 1-.327.6.55.55 0 0 1-.657-.286l-17.61-36.975a.495.495 0 0 1 .313-.694l7.072-1.98a.545.545 0 0 1 .414.052zM44.43 19.51l14.882 31.246-8.905-32.919-5.977 1.673z" fill="#070707"/>
    <path d="m72.615 15.079-1.902 36.725c-.013.243.338.294.394.057l8.43-35.549a.2.2 0 0 0-.159-.243l-6.527-1.176a.2.2 0 0 0-.236.186z" fill="#EF8943"/>
    <path fill-rule="evenodd" clip-rule="evenodd" d="M81.064 17.833a.5.5 0 0 1 .069.39L72.145 56.12a.5.5 0 0 1-.986-.141l2.029-39.152a.5.5 0 0 1 .588-.466l6.959 1.254a.5.5 0 0 1 .33.218zm-6.907-.387L72.443 50.53l7.595-32.025-5.88-1.06z" fill="#070707"/>
</svg>
