<svg width="24" height="24" viewBox="0 0 24 24" fill="none" xmlns="http://www.w3.org/2000/svg">
    <path d="M2 9h20c-1.267 0-1.9 0-2.384.3a2 2 0 0 0-.431.36c-.382.422-.495 1.045-.722 2.292l-.866 4.763c-.285 1.57-.428 2.356-.985 2.82-.556.465-1.354.465-2.95.465h-3.324c-1.596 0-2.394 0-2.95-.465-.557-.464-.7-1.25-.985-2.82l-.866-4.763c-.227-1.247-.34-1.87-.722-2.292a2 2 0 0 0-.431-.36C3.9 9 3.267 9 2 9z" fill="#FCB537" fill-opacity=".25"/>
    <path d="M2 9h20v0c-1.267 0-1.9 0-2.384.3a2 2 0 0 0-.431.36c-.382.422-.495 1.045-.722 2.292l-.866 4.763c-.285 1.57-.428 2.356-.985 2.82-.556.465-1.354.465-2.95.465h-3.324c-1.596 0-2.394 0-2.95-.465-.557-.464-.7-1.25-.985-2.82l-.866-4.763c-.227-1.247-.34-1.87-.722-2.292a2 2 0 0 0-.431-.36C3.9 9 3.267 9 2 9v0z" stroke="#0A4D3C" stroke-width="1.4" stroke-linecap="round"/>
    <path d="M12 5V3M10 16l-.5-3M14 16l.5-3" stroke="#8D280C" stroke-width="1.4" stroke-linecap="round"/>
</svg>
