<svg width="20" height="20" viewBox="0 0 20 20" fill="none" xmlns="http://www.w3.org/2000/svg">
<path d="M10 20C4.477 20 0 15.523 0 10C0 4.477 4.477 0 10 0C15.523 0 20 4.477 20 10C20 15.523 15.523 20 10 20ZM8.13684 13.7778C8.52739 14.1684 9.16059 14.1684 9.55111 13.7778L15.2071 8.12099C15.5975 7.73052 15.5975 7.0975 15.2071 6.70706C14.8166 6.31657 14.1835 6.3166 13.793 6.70712L9.19755 11.3034C9.0023 11.4987 8.68569 11.4987 8.49042 11.3034L6.722 9.535C6.33153 9.14454 5.69846 9.14454 5.308 9.535C4.91753 9.92547 4.91753 10.5585 5.308 10.949L8.13684 13.7778Z" fill="#B24629"/>
</svg>
