<svg width="16" height="16" viewBox="0 0 16 16" fill="none" xmlns="http://www.w3.org/2000/svg">
<path fill-rule="evenodd" clip-rule="evenodd" d="M2.2002 3.33345C2.2002 2.33934 3.00608 1.53345 4.0002 1.53345H8.0002C8.99431 1.53345 9.8002 2.33934 9.8002 3.33345V4.40011C9.8002 4.65785 9.59126 4.86678 9.33353 4.86678C9.0758 4.86678 8.86686 4.65785 8.86686 4.40011V3.33345C8.86686 2.8548 8.47884 2.46678 8.0002 2.46678H4.0002C3.52155 2.46678 3.13353 2.8548 3.13353 3.33345V8.66678C3.13353 9.14543 3.52155 9.53345 4.0002 9.53345H4.66686C4.9246 9.53345 5.13353 9.74238 5.13353 10.0001C5.13353 10.2578 4.9246 10.4668 4.66686 10.4668H4.0002C3.00608 10.4668 2.2002 9.66089 2.2002 8.66678V3.33345Z" fill="#5A5A5A"/>
<path fill-rule="evenodd" clip-rule="evenodd" d="M6.2002 7.33345C6.2002 6.33934 7.00608 5.53345 8.0002 5.53345H12.0002C12.9943 5.53345 13.8002 6.33933 13.8002 7.33345V12.6668C13.8002 13.6609 12.9943 14.4668 12.0002 14.4668H8.00019C7.00608 14.4668 6.2002 13.6609 6.2002 12.6668V7.33345ZM8.0002 6.46678C7.52155 6.46678 7.13353 6.8548 7.13353 7.33345V12.6668C7.13353 13.1454 7.52155 13.5334 8.00019 13.5334H12.0002C12.4788 13.5334 12.8669 13.1454 12.8669 12.6668V7.33345C12.8669 6.8548 12.4788 6.46678 12.0002 6.46678H8.0002Z" fill="#5A5A5A"/>
<path fill-rule="evenodd" clip-rule="evenodd" d="M8 8.86657C8 8.60884 8.20893 8.3999 8.46667 8.3999H11.5333C11.7911 8.3999 12 8.60884 12 8.86657C12 9.1243 11.7911 9.33323 11.5333 9.33323H8.46667C8.20893 9.33323 8 9.1243 8 8.86657Z" fill="#5A5A5A"/>
<path fill-rule="evenodd" clip-rule="evenodd" d="M8 10.8666C8 10.6088 8.20893 10.3999 8.46667 10.3999H10.2C10.4577 10.3999 10.6667 10.6088 10.6667 10.8666C10.6667 11.1243 10.4577 11.3332 10.2 11.3332H8.46667C8.20893 11.3332 8 11.1243 8 10.8666Z" fill="#5A5A5A"/>
</svg>
