<svg width="16" height="16" viewBox="0 0 16 16" fill="none" xmlns="http://www.w3.org/2000/svg">
<path fill-rule="evenodd" clip-rule="evenodd" d="M2.2002 3.3332C2.2002 2.33909 3.00608 1.5332 4.0002 1.5332H8.0002C8.99431 1.5332 9.8002 2.33909 9.8002 3.3332V4.39987C9.8002 4.6576 9.59126 4.86654 9.33353 4.86654C9.0758 4.86654 8.86686 4.6576 8.86686 4.39987V3.3332C8.86686 2.85456 8.47884 2.46654 8.0002 2.46654H4.0002C3.52155 2.46654 3.13353 2.85456 3.13353 3.3332V8.66654C3.13353 9.14518 3.52155 9.5332 4.0002 9.5332H4.66686C4.9246 9.5332 5.13353 9.74214 5.13353 9.99987C5.13353 10.2576 4.9246 10.4665 4.66686 10.4665H4.0002C3.00608 10.4665 2.2002 9.66065 2.2002 8.66654V3.3332Z" fill="#B24629"/>
<path fill-rule="evenodd" clip-rule="evenodd" d="M6.2002 7.3332C6.2002 6.33909 7.00608 5.5332 8.0002 5.5332H12.0002C12.9943 5.5332 13.8002 6.33909 13.8002 7.3332V12.6665C13.8002 13.6606 12.9943 14.4665 12.0002 14.4665H8.00019C7.00608 14.4665 6.2002 13.6607 6.2002 12.6665V7.3332ZM8.0002 6.46654C7.52155 6.46654 7.13353 6.85456 7.13353 7.3332V12.6665C7.13353 13.1452 7.52155 13.5332 8.00019 13.5332H12.0002C12.4788 13.5332 12.8669 13.1452 12.8669 12.6665V7.3332C12.8669 6.85456 12.4788 6.46654 12.0002 6.46654H8.0002Z" fill="#B24629"/>
<path fill-rule="evenodd" clip-rule="evenodd" d="M8 8.86657C8 8.60884 8.20893 8.3999 8.46667 8.3999H11.5333C11.7911 8.3999 12 8.60884 12 8.86657C12 9.1243 11.7911 9.33323 11.5333 9.33323H8.46667C8.20893 9.33323 8 9.1243 8 8.86657Z" fill="#B24629"/>
<path fill-rule="evenodd" clip-rule="evenodd" d="M8 10.8666C8 10.6088 8.20893 10.3999 8.46667 10.3999H10.2C10.4577 10.3999 10.6667 10.6088 10.6667 10.8666C10.6667 11.1243 10.4577 11.3332 10.2 11.3332H8.46667C8.20893 11.3332 8 11.1243 8 10.8666Z" fill="#B24629"/>
</svg>
