<svg width="24" height="24" viewBox="0 0 24 24" fill="none" xmlns="http://www.w3.org/2000/svg">
    <path d="M12.079 4c1.785 0 2.485.831 2.719 1.736.154.598 1.278 1.313 1.872 1.143.953-.272 2.074-.177 2.945 1.121.815 1.424.202 2.434-.596 3.083-.46.373-.46 1.461 0 1.834.798.65 1.41 1.66.597 3.083-.872 1.298-1.993 1.392-2.946 1.12-.594-.169-1.718.546-1.872 1.144-.234.905-.934 1.736-2.719 1.736-1.785 0-2.485-.831-2.719-1.736-.154-.598-1.278-1.313-1.872-1.143-.953.271-2.074.177-2.945-1.121-.684-1.196-.362-2.1.232-2.743.426-.461.343-1.859-.119-2.285-.666-.614-1.012-1.56-.113-2.972.825-1.297 1.837-1.493 2.728-1.29.62.142 1.95-.651 2.175-1.245C9.746 4.672 10.474 4 12.079 4z" stroke="#5A5A5A" stroke-width="1.4" stroke-miterlimit="3.628"/>
    <circle cx="12" cy="12" r="2.3" stroke="#5A5A5A" stroke-width="1.4"/>
</svg>
