<svg width="24" height="24" viewBox="0 0 24 24" fill="none" xmlns="http://www.w3.org/2000/svg">
    <path fill-rule="evenodd" clip-rule="evenodd" d="M14.788 7.202a.3.3 0 0 1 .424 0l1.586 1.586a.3.3 0 0 1 0 .424L16 10.01 13.99 8l.798-.798zm-2.29.31-6.797 6.797a1.7 1.7 0 0 0-.447.79l-.529 2.114a1.7 1.7 0 0 0 2.062 2.062l2.114-.529a1.7 1.7 0 0 0 .79-.447l8.097-8.097a1.7 1.7 0 0 0 0-2.404l-1.586-1.586a1.7 1.7 0 0 0-2.404 0L12.51 7.499l-.006.006-.006.006zM13 8.99 15.01 11 8.7 17.31a.3.3 0 0 1-.138.078l-2.115.529a.3.3 0 0 1-.364-.364l.529-2.115a.3.3 0 0 1 .079-.139L13 8.99z" fill="#b24629"/>
</svg>
