<svg width="160" height="160" viewBox="0 0 160 160" fill="none" xmlns="http://www.w3.org/2000/svg">
    <path d="M63.862 65.442c22.411-6.541 27.48-15.16 38.634-34.124l1.268 7.707 9.076-1.623-1.115 9.785 10.292.253.761 8.569 7.707-1.268.913 6.337 8.568-.76 2.282 5.982c-12.167 20.687-20.327 26.275-40.864 33.973-25.3 9.482-32.127 19.775-40.407 27.28l-9.076 1.623-2.13-8.214-9.076 1.623-1.268-7.707-7.2.406.102-8.061-9.43.254 1.114-9.786-6.693-.456c20.381-22.817 24.132-25.251 46.542-31.793z" fill="#E1542E"/>
    <path fill-rule="evenodd" clip-rule="evenodd" d="M105.022 30.472a.5.5 0 0 1 .402.41l1.185 7.207 8.577-1.534a.5.5 0 0 1 .585.549l-1.053 9.242 9.746.24a.5.5 0 0 1 .486.455l.713 8.032 7.175-1.18a.501.501 0 0 1 .576.422l.846 5.869 8.097-.72a.5.5 0 0 1 .511.32l2.282 5.983a.5.5 0 0 1-.036.432c-6.097 10.366-11.215 16.993-17.411 21.993-6.193 4.998-13.43 8.342-23.709 12.194-12.605 4.725-20.59 9.644-26.45 14.305-2.932 2.333-5.338 4.605-7.533 6.768-.606.598-1.198 1.189-1.78 1.771-1.52 1.518-2.98 2.976-4.484 4.339a.495.495 0 0 1-.248.121l-9.076 1.623a.5.5 0 0 1-.572-.366l-2.014-7.766-8.62 1.542a.503.503 0 0 1-.58-.411l-1.196-7.264-6.75.381a.498.498 0 0 1-.529-.505l.095-7.542-8.911.24a.499.499 0 0 1-.51-.556L25.89 97.8l-6.17-.42a.5.5 0 0 1-.34-.832c10.184-11.4 16.257-17.762 22.602-22.08 6.36-4.328 12.97-6.59 24.174-9.86 11.154-3.256 17.942-7.014 23.328-12.282 5.406-5.287 9.428-12.118 15.014-21.616a.5.5 0 0 1 .523-.238zm9.679 7.185-8.415 1.505a.499.499 0 0 1-.581-.41l-1.044-6.345c-5.216 8.862-9.19 15.464-14.476 20.634-5.54 5.418-12.492 9.241-23.748 12.527-11.206 3.27-17.677 5.497-23.891 9.726-6.087 4.143-11.95 10.222-21.737 21.157l5.672.387a.5.5 0 0 1 .463.555l-1.05 9.214 8.856-.239a.5.5 0 0 1 .513.506l-.094 7.526 6.665-.375a.5.5 0 0 1 .521.418l1.186 7.206 8.576-1.534a.5.5 0 0 1 .572.367l2.014 7.765 8.478-1.516c1.447-1.317 2.849-2.717 4.326-4.192.586-.586 1.185-1.183 1.802-1.792 2.206-2.174 4.64-4.474 7.612-6.838 5.949-4.732 14.027-9.701 26.722-14.459 10.258-3.845 17.369-7.144 23.432-12.036 6.02-4.858 11.039-11.314 17.055-21.515l-2.062-5.405-8.192.728a.5.5 0 0 1-.539-.427l-.84-5.833-7.203 1.185a.501.501 0 0 1-.579-.449l-.722-8.124-9.846-.241a.499.499 0 0 1-.485-.557l1.039-9.119z" fill="#070707"/>
    <path d="M100.428 50.124a1 1 0 0 1 1.441-.193l26.144 21.17a1 1 0 0 1 .182 1.36l-4.254 5.908a1 1 0 0 1-1.441.192L96.356 57.392a1 1 0 0 1-.182-1.361l4.254-5.907z" fill="#FCB537"/>
    <path fill-rule="evenodd" clip-rule="evenodd" d="M82.526 64.666a.937.937 0 0 1 1.299-.128c11.962 9.575 16.499 13.427 17.287 14.174.367.347.376.92.022 1.279a.937.937 0 0 1-1.306.02c-.719-.68-5.183-4.476-17.172-14.072a.892.892 0 0 1-.13-1.273zM102.47 81.403a.937.937 0 0 1 1.3-.128c2.967 2.376 5.115 3.836 6.559 4.744.723.454 1.273.771 1.671 1l.035.02c.181.105.342.198.468.275.115.07.28.173.407.294.367.347.376.92.022 1.279a.937.937 0 0 1-1.288.037c-.001 0-.031-.022-.117-.074-.106-.065-.248-.147-.443-.26l-.02-.01a50.04 50.04 0 0 1-1.732-1.039c-1.506-.946-3.711-2.448-6.731-4.865a.892.892 0 0 1-.131-1.273zM90.249 87.466a.935.935 0 0 1 1.279-.257c3.205 2.074 5.48 3.365 7 4.174.745.396 1.31.679 1.723.885l.027.013c.205.102.382.19.52.264.122.064.277.149.4.243.4.31.469.878.153 1.27a.935.935 0 0 1-1.29.156s-.035-.022-.14-.077a27.159 27.159 0 0 0-.482-.244l-.028-.014c-.415-.208-.998-.499-1.764-.907-1.568-.834-3.89-2.152-7.137-4.253a.893.893 0 0 1-.261-1.253zM77.65 92.392a.935.935 0 0 1 1.28-.256c5.761 3.728 7.64 5.256 8.278 5.775.08.065.141.114.188.15.4.309.469.877.153 1.27a.937.937 0 0 1-1.297.15c-.046-.035-.105-.084-.185-.148-.626-.51-2.46-2.002-8.156-5.687a.893.893 0 0 1-.261-1.254zM68.952 69.432a.937.937 0 0 1 1.3-.121c1.889 1.527 3.314 2.994 4.574 4.324l.37.39c1.113 1.18 2.094 2.217 3.208 3.13 3.762 3.087 5.94 4.8 7.258 5.82l.854.657c.694.532 1.068.818 1.353 1.092.363.35.368.923.011 1.28a.937.937 0 0 1-1.306.01c-.206-.198-.463-.395-1.089-.875-.254-.195-.57-.437-.968-.745-1.334-1.032-3.525-2.756-7.299-5.851-1.21-.993-2.271-2.117-3.372-3.282l-.374-.395c-1.247-1.317-2.605-2.712-4.396-4.16a.892.892 0 0 1-.124-1.274zM56.521 72.46a.935.935 0 0 1 1.277.267c1.082 1.632 1.998 2.662 3.225 3.88.402.4.847.828 1.345 1.307 1.004.967 2.226 2.144 3.763 3.724 3.478 2.857 5.844 4.677 7.42 5.86.526.394.96.715 1.323.983l.507.376c.425.316.757.57.97.775.365.35.37.923.012 1.28a.937.937 0 0 1-1.306.01c-.112-.108-.341-.288-.794-.625l-.491-.364c-.367-.271-.814-.602-1.344-1-1.603-1.203-4.002-3.049-7.523-5.942a.9.9 0 0 1-.076-.069 144.817 144.817 0 0 0-3.716-3.679c-.508-.488-.968-.932-1.405-1.365-1.29-1.281-2.293-2.406-3.459-4.167a.893.893 0 0 1 .272-1.25zM44.38 78.272a.937.937 0 0 1 1.306-.012c6.756 6.503 14.04 12.442 19.753 16.868a391.548 391.548 0 0 0 8.027 6.047c.504.371.936.69 1.285.95.513.383.92.691 1.087.851.363.35.368.923.01 1.279a.937.937 0 0 1-1.322-.004l-.055-.046a13.002 13.002 0 0 0-.192-.152c-.16-.124-.377-.287-.646-.488-.346-.258-.772-.572-1.272-.941l-.91-.672a394.284 394.284 0 0 1-7.157-5.405c-5.74-4.447-13.08-10.43-19.902-16.996a.892.892 0 0 1-.012-1.28z" fill="#FCB537"/>
    <path d="M38.563 99.469a.645.645 0 0 0 .089.907l.123.102c.267.219.661.181.88-.086.194-.236.529-.291.813-.177.51.203 1.021.263 1.536.179.677-.108 1.259-.457 1.745-1.049.42-.51.63-1.025.63-1.543.007-.518-.2-1.105-.62-1.76l-.876-1.353c-.232-.36-.364-.669-.398-.927a.898.898 0 0 1 .207-.691c.221-.27.518-.4.89-.392.373.008.723.152 1.05.432.34.297.542.656.604 1.08.03.182.031.365.004.546-.06.408.05.864.414 1.058.36.193.819.055.945-.334.137-.42.193-.833.169-1.237a2.852 2.852 0 0 0-.358-1.245c-.152-.272-.157-.615.04-.856a.66.66 0 0 0-.09-.929l-.11-.09a.627.627 0 0 0-.883.086c-.195.238-.532.29-.82.18a2.543 2.543 0 0 0-1.38-.148c-.616.108-1.156.444-1.62 1.009-.76.924-.805 1.923-.136 2.997l1.143 1.851c.185.299.28.563.286.793.006.23-.077.449-.248.657-.246.3-.573.448-.98.445-.408-.003-.8-.16-1.18-.471a1.943 1.943 0 0 1-.715-1.196 2.057 2.057 0 0 1 .014-.773c.08-.391-.032-.826-.38-1.023-.348-.197-.799-.084-.947.288a3.307 3.307 0 0 0-.24 1.398c.026.513.17.99.43 1.43.158.264.165.604-.03.842zM46.168 106.263a.644.644 0 0 0 .089.907l.123.102c.267.219.661.18.88-.086.195-.236.529-.291.813-.177.51.203 1.021.263 1.536.179.677-.108 1.259-.457 1.745-1.049.42-.511.63-1.025.63-1.543.007-.518-.2-1.105-.62-1.759l-.876-1.354c-.232-.36-.364-.669-.398-.927a.898.898 0 0 1 .207-.691c.221-.27.518-.4.89-.392.373.008.723.152 1.05.432.34.297.542.656.604 1.079.03.183.031.366.004.547-.06.408.05.864.414 1.058.36.193.819.055.945-.334.136-.42.193-.833.169-1.237a2.854 2.854 0 0 0-.358-1.245c-.152-.272-.157-.615.04-.856a.66.66 0 0 0-.09-.929l-.11-.09a.627.627 0 0 0-.883.086c-.195.238-.532.29-.82.18a2.544 2.544 0 0 0-1.38-.148c-.616.108-1.156.444-1.62 1.009-.76.924-.805 1.923-.136 2.997l1.143 1.851c.185.299.28.563.286.793.006.23-.077.449-.248.657-.246.299-.573.448-.98.445-.408-.003-.8-.16-1.18-.471a1.944 1.944 0 0 1-.715-1.196 2.056 2.056 0 0 1 .014-.773c.08-.391-.032-.826-.38-1.023-.348-.197-.799-.084-.947.288a3.305 3.305 0 0 0-.24 1.398c.026.513.17.99.43 1.429.158.265.165.605-.03.843zM53.35 112.552a.645.645 0 0 0-.022.912l.11.116c.239.25.634.26.884.022.222-.211.56-.224.828-.077.481.264.982.386 1.503.366.685-.025 1.305-.301 1.86-.829.48-.456.75-.94.814-1.454.07-.514-.064-1.121-.4-1.822l-.705-1.451c-.187-.385-.28-.708-.282-.968a.898.898 0 0 1 .29-.661c.252-.24.562-.333.931-.28.369.053.699.238.99.557.301.336.457.717.467 1.144.007.186-.014.367-.063.544-.11.397-.056.863.282 1.1.335.235.806.155.979-.216.186-.401.292-.803.318-1.208.03-.443-.038-.87-.204-1.279-.117-.289-.08-.629.146-.844a.66.66 0 0 0 .023-.933l-.099-.104a.627.627 0 0 0-.886-.022c-.223.213-.564.224-.835.078a2.549 2.549 0 0 0-1.353-.314c-.624.032-1.201.3-1.73.803-.867.825-1.034 1.811-.5 2.958l.908 1.978c.147.318.21.592.187.821-.023.229-.132.436-.327.622-.28.267-.623.374-1.027.322-.404-.052-.775-.256-1.113-.611a1.945 1.945 0 0 1-.564-1.274 2.057 2.057 0 0 1 .108-.766c.128-.379.07-.824-.252-1.061-.322-.238-.783-.182-.975.17a3.304 3.304 0 0 0-.408 1.358 3.056 3.056 0 0 0 .252 1.471c.124.282.089.62-.134.832z" fill="#8D280C"/>
    <path fill-rule="evenodd" clip-rule="evenodd" d="M144.526 116.648a1.4 1.4 0 0 1 .627 1.878c-5.113 10.225-16.238 13.42-21.153 13.771a1.4 1.4 0 0 1-.199-2.793c4.418-.316 14.36-3.255 18.847-12.23a1.4 1.4 0 0 1 1.878-.626z" fill="#CACACA"/>
    <path fill-rule="evenodd" clip-rule="evenodd" d="M140.201 117.051a1.9 1.9 0 1 1 3.398 1.699c-5.224 10.448-16.56 13.688-21.564 14.046a1.901 1.901 0 0 1-.27-3.791c2.141-.153 5.664-.948 9.2-2.811 3.532-1.861 7.05-4.772 9.236-9.143zm2.102.044a.9.9 0 0 0-1.208.403c-2.302 4.604-5.998 7.649-9.664 9.581-3.661 1.929-7.318 2.761-9.595 2.924a.9.9 0 1 0 .128 1.795c4.827-.345 15.74-3.494 20.741-13.495a.901.901 0 0 0-.402-1.208z" fill="#070707"/>
    <path fill-rule="evenodd" clip-rule="evenodd" d="M37.2 55.645c.557.517.565 1.393.017 1.957-4.432 4.566-10.013 6.869-15.116 7.91-5.093 1.04-9.808.845-12.652.327a1.332 1.332 0 0 1-1.075-1.614 1.47 1.47 0 0 1 1.688-1.11c2.5.455 6.843.648 11.557-.314 4.704-.96 9.678-3.05 13.58-7.07.549-.564 1.444-.602 2.001-.086z" fill="#CACACA"/>
    <path fill-rule="evenodd" clip-rule="evenodd" d="M36.387 54.765c.801-.825 2.138-.875 2.996-.166.872.72.973 1.995.154 2.84-4.533 4.669-10.23 7.034-15.485 8.104-5.25 1.07-10.094.853-12.969.33-1.121-.205-1.906-1.226-1.668-2.338.24-1.117 1.395-1.79 2.52-1.584 2.467.45 6.683.621 11.24-.311 4.554-.932 9.41-2.96 13.212-6.875zm2.329.6c-.483-.4-1.209-.344-1.608.068l-.36-.334.36.334c-3.992 4.111-9.066 6.214-13.76 7.175-4.691.96-9.04.788-11.632.315-.643-.117-1.202.27-1.312.782-.11.516.253 1.077.898 1.195 2.754.501 7.464.716 12.578-.325 5.11-1.041 10.592-3.33 14.937-7.805.382-.394.368-1.018-.101-1.405z" fill="#070707"/>
    <path fill-rule="evenodd" clip-rule="evenodd" d="M140.092 99.283a1.4 1.4 0 0 1 .525 1.909c-1.868 3.285-4.822 5.402-7.664 6.717-2.838 1.313-5.669 1.875-7.465 1.988a1.4 1.4 0 1 1-.176-2.794c1.47-.093 3.96-.576 6.465-1.735 2.502-1.157 4.915-2.938 6.406-5.56a1.4 1.4 0 0 1 1.909-.525z" fill="#CACACA"/>
    <path fill-rule="evenodd" clip-rule="evenodd" d="M140.863 96.857c.402-.774 1.363-1.07 2.143-.695.79.38 1.13 1.322.721 2.107-2.078 4-5.374 6.613-8.626 8.257-3.248 1.642-6.479 2.332-8.482 2.47-.865.059-1.649-.569-1.714-1.447-.066-.88.621-1.612 1.488-1.672 1.679-.115 4.448-.716 7.227-2.125 2.776-1.407 5.532-3.604 7.243-6.895zm1.71.206a.627.627 0 0 0-.823.255l-.444-.23.444.23c-1.832 3.526-4.772 5.853-7.678 7.326-2.902 1.471-5.802 2.106-7.611 2.231-.35.024-.581.309-.559.6.022.294.296.547.648.523 1.877-.129 4.977-.785 8.1-2.364 3.119-1.577 6.232-4.06 8.19-7.826a.545.545 0 0 0-.267-.745z" fill="#070707"/>
    <path fill-rule="evenodd" clip-rule="evenodd" d="M43.192 33.283a1.4 1.4 0 0 1 .525 1.909c-1.868 3.285-4.822 5.402-7.664 6.717-2.838 1.313-5.669 1.875-7.465 1.988a1.4 1.4 0 1 1-.176-2.794c1.47-.093 3.96-.576 6.465-1.735 2.502-1.157 4.915-2.938 6.406-5.56a1.4 1.4 0 0 1 1.91-.525z" fill="#CACACA"/>
    <path fill-rule="evenodd" clip-rule="evenodd" d="M39.962 32.857c.403-.774 1.364-1.07 2.144-.695.79.38 1.13 1.322.72 2.107-2.078 4-5.373 6.613-8.625 8.257-3.248 1.642-6.48 2.332-8.483 2.47-.865.06-1.648-.569-1.714-1.447-.065-.88.621-1.612 1.488-1.672 1.68-.115 4.448-.716 7.228-2.125 2.776-1.407 5.532-3.604 7.242-6.895zm1.71.206a.626.626 0 0 0-.822.255l-.444-.23.444.23c-1.833 3.526-4.772 5.853-7.678 7.326-2.902 1.471-5.802 2.106-7.611 2.23-.35.025-.581.31-.56.601.022.294.296.547.649.523 1.877-.129 4.977-.785 8.1-2.364 3.118-1.577 6.232-4.06 8.19-7.826a.545.545 0 0 0-.268-.745z" fill="#070707"/>
</svg>
