<svg width="80" height="80" viewBox="0 0 80 80" fill="none" xmlns="http://www.w3.org/2000/svg">
    <path d="m19.9 64.964-7.973-22.55a1 1 0 0 1 .997-1.332l52.836 2.88a1 1 0 0 1 .833 1.458L55.028 67.71a1 1 0 0 1-.966.536l-33.298-2.618a1 1 0 0 1-.864-.664z" fill="#FCB537"/>
    <path d="m69.91 40.87-.826 2.735a1 1 0 0 1-1.01.709L10.34 41.251a1 1 0 0 1-.94-.875l-.307-2.455a1 1 0 0 1 1.04-1.123L69 39.58a1 1 0 0 1 .91 1.289z" fill="#0A4D3C"/>
    <path fill-rule="evenodd" clip-rule="evenodd" d="M7.096 35.394a.25.25 0 0 1 .195-.08l61.336 2.9a.25.25 0 0 1 .227.322L67.43 43.25a.25.25 0 0 1-.27.176l-1.874-.227-12.504 24.098a.25.25 0 0 1-.241.134l-34.607-2.72a.25.25 0 0 1-.216-.166L9.153 40.422l-.034-.05-1.293-.094a.25.25 0 0 1-.236-.218l-.559-4.465a.25.25 0 0 1 .065-.201zm2.57 4.977 8.468 23.854 34.28 2.695 12.328-23.76-55.076-2.788zm-2.102-4.544.496 3.963 57.096 2.89.017.002 1.838.222 1.272-4.205-60.719-2.872z" fill="#070707"/>
    <path fill-rule="evenodd" clip-rule="evenodd" d="M20.396 44.252a.25.25 0 0 1 .28.216l.272 2.107 5.38.444-.15-2a.25.25 0 1 1 .499-.038l.157 2.08 5.69.469V45.5a.25.25 0 0 1 .5 0v2.071l6.333.522.236-2.023a.25.25 0 1 1 .496.058l-.234 2.007 6.378.526.498-2.004a.25.25 0 1 1 .485.12l-.478 1.925 6.377.526.757-1.981a.25.25 0 0 1 .467.178l-.706 1.846 4.338.358a.25.25 0 1 1-.04.498l-4.483-.37-2.093 5.475 3.825.289a.25.25 0 0 1-.037.498l-3.974-.3-1.85 4.84 3.508.296a.25.25 0 0 1-.042.498l-3.651-.309-.973 2.545a.25.25 0 0 1-.467-.178l.921-2.41-4.832-.41-.613 2.47a.25.25 0 1 1-.485-.121l.594-2.391-4.825-.409-.278 2.389a.25.25 0 0 1-.497-.058l.277-2.373-4.931-.417v2.42a.25.25 0 1 1-.5 0V59.64l-4.773-.405.187 2.477a.25.25 0 0 1-.5.038l-.192-2.557-4.723-.4.328 2.535a.25.25 0 0 1-.496.064l-.341-2.642-2.844-.24a.25.25 0 0 1 .042-.499l2.736.232-.616-4.777-3.835-.29a.25.25 0 1 1 .037-.498l3.732.282-.764-5.919-3.815-.314a.25.25 0 1 1 .041-.499l3.709.306-.258-2.001a.25.25 0 0 1 .216-.28zm.617 2.83.763 5.915 5.032.38-.441-5.853-5.354-.442zm5.859.483.44 5.85 5.213.394v-5.777l-5.653-.466zm6.153.508v5.774l5.61.424.664-5.68-6.274-.518zm6.772.559-.662 5.677 5.59.422 1.386-5.579-6.314-.52zm6.819.562-1.386 5.575 5.605.424 2.094-5.478-6.314-.521zm4.033 6.486-5.541-.419-1.202 4.839 4.895.414 1.848-4.834zM43.4 60.057l1.201-4.834-5.525-.417-.565 4.838 4.889.413zm-5.387-.456.564-4.833-5.553-.42v4.831l4.989.422zm-5.49-.464V54.31l-5.173-.391.363 4.81 4.81.407zm-5.315-.45-.362-4.805-5.005-.378.617 4.78 4.75.403z" fill="#070707"/>
    <rect x="61.291" y="19" width="4" height="32" rx="2" transform="rotate(50.457 61.29 19)" fill="#0A4D3C"/>
    <path fill-rule="evenodd" clip-rule="evenodd" d="M58.59 20.08a2.25 2.25 0 0 1 2.864 3.47L39.862 41.378a2.25 2.25 0 1 1-2.865-3.47L58.589 20.08zm2.781.622a1.75 1.75 0 0 0-2.464-.236L37.316 38.292a1.75 1.75 0 0 0 2.229 2.7l21.592-17.827a1.75 1.75 0 0 0 .235-2.463z" fill="#070707"/>
    <path d="m10.307 18.73 14.34 9.446c.204.134.425-.143.25-.311L12.572 16.067a.2.2 0 0 0-.29.015l-2.017 2.35a.2.2 0 0 0 .041.298z" fill="#EF8943"/>
    <path fill-rule="evenodd" clip-rule="evenodd" d="M12.938 16.672a.25.25 0 0 1 .185.069L27.19 30.208a.25.25 0 0 1-.31.389L10.51 19.813a.25.25 0 0 1-.052-.371l2.302-2.683a.25.25 0 0 1 .178-.087zm-1.916 2.88 13.834 9.113-11.888-11.38-1.946 2.267z" fill="#070707"/>
    <path d="m21.787 8.523 7.446 16.553c.1.223.435.107.377-.13L25.295 7.44a.2.2 0 0 0-.253-.144l-3.131.954a.2.2 0 0 0-.124.273z" fill="#EF8943"/>
    <path fill-rule="evenodd" clip-rule="evenodd" d="M25.512 8.377c.063.036.11.095.128.164l5.27 19.478a.245.245 0 0 1-.165.3.275.275 0 0 1-.328-.143L21.612 9.688a.247.247 0 0 1 .156-.347l3.537-.99a.272.272 0 0 1 .207.026zm-3.297 1.377 7.44 15.623-4.452-16.459-2.988.836z" fill="#070707"/>
    <path d="m36.302 7.653-.889 17.15c-.012.242.339.293.395.056l3.937-16.6a.2.2 0 0 0-.16-.243l-3.048-.55a.2.2 0 0 0-.235.187z" fill="#EF8943"/>
    <path fill-rule="evenodd" clip-rule="evenodd" d="M40.532 8.916a.25.25 0 0 1 .035.195L36.073 28.06a.25.25 0 0 1-.493-.07l1.014-19.577a.25.25 0 0 1 .294-.233l3.48.627a.25.25 0 0 1 .164.11zm-3.453-.193-.857 16.542 3.797-16.012-2.94-.53z" fill="#070707"/>
</svg>
