<svg width="24" height="24" viewBox="0 0 24 24" fill="none" xmlns="http://www.w3.org/2000/svg">
    <path fill-rule="evenodd" clip-rule="evenodd" d="M17.72 4H6.136C4.957 4 4 4.957 4 6.137v11.582c0 1.18.957 2.137 2.137 2.137h5.712l.01-5.666h-1.472a.347.347 0 0 1-.347-.346l-.007-1.826c-.001-.193.155-.35.347-.35h1.47V9.905c0-2.048 1.25-3.163 3.077-3.163h1.5c.191 0 .346.155.346.347v1.54a.347.347 0 0 1-.347.348h-.92c-.993 0-1.186.472-1.186 1.165v1.528h2.184c.208 0 .369.181.345.388l-.217 1.826a.347.347 0 0 1-.345.307H14.33l-.01 5.666h3.4c1.18 0 2.136-.957 2.136-2.137V6.137c0-1.18-.957-2.137-2.137-2.137z" fill="#fff"/>
</svg>
