<svg width="24" height="24" viewBox="0 0 24 24" fill="none" xmlns="http://www.w3.org/2000/svg">
    <path fill-rule="evenodd" clip-rule="evenodd" d="M11.3 8v.02a1.3 1.3 0 1 1 0-.039v.02zM10 10.7c1.25 0 2.3-.848 2.609-2h7.39a.7.7 0 1 0 0-1.4h-7.39a2.701 2.701 0 0 0-5.217 0H4a.7.7 0 0 0 0 1.4h3.392c.308 1.152 1.36 2 2.608 2zm7.609 4.6a2.701 2.701 0 0 0-5.217 0H4a.7.7 0 0 0 0 1.4h8.392a2.701 2.701 0 0 0 5.217 0h2.39a.7.7 0 1 0 0-1.4h-2.39zm-1.309.681a.602.602 0 0 0 0 .038 1.3 1.3 0 1 1 0-.038z" fill="#fff"/>
</svg>
