<svg width="24" height="24" viewBox="0 0 24 24" fill="none" xmlns="http://www.w3.org/2000/svg">
    <path fill-rule="evenodd" clip-rule="evenodd" d="M12.774 4c.969.002 1.434.008 1.846.02l.289.011.39.017c.851.04 1.433.174 1.942.372.526.205.972.478 1.416.923.445.445.719.89.923 1.417.198.509.333 1.09.372 1.942.034.74.045 1.042.048 2.524v1.548a61.8 61.8 0 0 1-.02 1.846l-.01.289-.018.39c-.039.851-.174 1.433-.372 1.942a3.922 3.922 0 0 1-.922 1.416c-.445.445-.891.719-1.418.923-.508.198-1.09.333-1.941.372a73.19 73.19 0 0 1-.39.017l-.289.01a61.8 61.8 0 0 1-1.846.02h-1.547c-1.483-.002-1.786-.013-2.525-.047-.852-.039-1.433-.174-1.942-.372a3.922 3.922 0 0 1-1.417-.922 3.921 3.921 0 0 1-.923-1.418c-.198-.508-.333-1.09-.372-1.941a78.188 78.188 0 0 1-.017-.39l-.01-.289A61.875 61.875 0 0 1 4 12.774v-1.547c.002-1.483.013-1.786.047-2.525.039-.852.174-1.433.372-1.942.204-.526.478-.972.923-1.417.445-.445.89-.718 1.417-.923.509-.198 1.09-.333 1.942-.372.74-.034 1.042-.045 2.524-.047h1.548zM12 5.443h-.76c-1.454.002-1.741.013-2.473.046-.78.036-1.203.166-1.485.276-.373.145-.64.318-.92.598-.28.28-.453.547-.598.92-.11.282-.24.705-.276 1.485-.033.732-.044 1.02-.046 2.473v1.52c.002 1.063.008 1.502.024 1.947l.005.142.017.384c.036.78.166 1.203.276 1.485.145.374.318.64.598.92.28.28.546.453.92.599.282.11.705.24 1.485.275.731.034 1.019.044 2.473.046h1.52c1.454-.002 1.742-.012 2.473-.046.78-.035 1.203-.166 1.485-.275.374-.145.64-.319.92-.599.28-.28.453-.546.599-.92.11-.282.24-.705.275-1.485l.017-.384.005-.142c.017-.445.023-.884.024-1.947v-1.52c-.002-1.454-.012-1.741-.046-2.473-.035-.78-.166-1.203-.275-1.485a2.477 2.477 0 0 0-.599-.92 2.478 2.478 0 0 0-.92-.598c-.282-.11-.705-.24-1.485-.276l-.384-.017-.142-.005a53.89 53.89 0 0 0-1.947-.024H12zm0 2.45a4.108 4.108 0 1 1 0 8.216 4.108 4.108 0 0 1 0-8.216zm0 1.441a2.667 2.667 0 1 0 0 5.334 2.667 2.667 0 0 0 0-5.334zm4.27-2.563a.96.96 0 1 1 0 1.92.96.96 0 0 1 0-1.92z" fill="#fff"/>
</svg>
