<svg width="80" height="80" viewBox="0 0 80 80" fill="none" xmlns="http://www.w3.org/2000/svg">
    <path d="M37.196 37.927c-3.406 4.034-7.175 3.658-9.236 2.711-.366-.167-.326-.688.01-.91 1.613-1.064 3.836-3.52 4.749-6.268.832-2.506 3.873-5.145 5.849-6.275a.443.443 0 0 1 .624.186c.957 1.955 1.658 6.227-1.996 10.556z" fill="#501C0E"/>
    <path d="M30.481 32.344c-1.167 4.988-3.122 6.787-4.24 7.16-1.715-.817-3.62-4.604 1.33-10.734 3.322-4.115 7.678-4.46 9.913-2.834.354.257.101.802-.329.884-2.246.43-5.933 2.359-6.674 5.524zM44.371 33.916c-1.298-2.94-.264-4.97.811-5.999.29-.277.753-.022.83.372.246 1.258 1.029 3.055 2.274 4.273 1.193 1.168 1.869 3.582 2.002 5.086a.423.423 0 0 1-.434.47c-1.461-.058-4.037-.931-5.483-4.202zM49.585 31.566c-2.601-2.12-3.099-3.786-2.998-4.551.974-.775 3.75-.81 5.937 3.863 1.362 2.91.56 5.413-.84 6.437-.353.259-.755-.194-.675-.624.28-1.504.088-3.893-1.424-5.125zM42.772 54.837c-3.865 2.336-6.834 1.073-8.306-.258-.298-.27-.097-.753.29-.863 1.633-.464 4.075-1.853 5.563-3.824 1.375-1.821 4.577-3.145 6.532-3.54a.437.437 0 0 1 .529.373c.224 1.902-.42 5.58-4.608 8.112z" fill="#501C0E"/>
    <path d="M38.78 48.345c-2.359 3.797-4.478 4.738-5.506 4.735-1.19-1.156-1.707-4.82 4.099-8.504 3.819-2.423 7.446-1.578 8.902.31.267.347-.145.788-.58.739-2.003-.226-5.453.369-6.914 2.72z" fill="#501C0E"/>
    <path d="m47.042 25.425-.16-.192-.075.062-.013.097.248.033zm3.124 5.173-.166.187.166-.187zm3.124-.739.23-.098-.23.098zm-1.057 7.32-.144-.205.144.204zm-1.83.817-.011.25.011-.25zm.44-.465.25-.016-.25.017zm-5.262-11.144-.174-.179.174.18zm-.174-.179c-1.232 1.198-2.426 3.596-1.027 7.07l.464-.187c-1.317-3.27-.188-5.456.911-6.525l-.348-.358zm-1.027 7.07c1.542 3.83 4.379 4.892 6.012 4.968l.023-.5c-1.453-.067-4.108-1.02-5.571-4.655l-.464.187zm6.713 4.237c-.057-.868-.26-2.007-.611-3.102-.35-1.09-.852-2.164-1.523-2.877l-.364.342c.596.634 1.07 1.626 1.41 2.688.339 1.057.535 2.156.59 2.982l.498-.033zm-2.134-5.98c-1.294-1.377-2.091-3.426-2.31-4.813l-.495.078c.232 1.464 1.064 3.613 2.44 5.078l.365-.342zm-2.165-6.143c-.132.984.449 2.948 3.206 5.393l.331-.374c-2.707-2.401-3.14-4.212-3.042-4.953l-.495-.066zM50 30.785c.763.677 1.189 1.688 1.377 2.756a8.132 8.132 0 0 1-.04 2.97l.49.104a8.632 8.632 0 0 0 .042-3.161c-.2-1.131-.66-2.264-1.538-3.043l-.331.374zm2.377 6.597c1.674-1.18 2.612-4.18 1.142-7.62l-.46.195c1.407 3.293.456 6.011-.97 7.017l.288.408zm1.142-7.62c-1.145-2.683-2.48-4.067-3.703-4.656-1.224-.59-2.327-.376-2.934.127l.319.385c.435-.36 1.324-.58 2.398-.062 1.075.518 2.343 1.783 3.46 4.401l.46-.196zm-2.181 6.749a.88.88 0 0 0 .225.787.66.66 0 0 0 .369.196.607.607 0 0 0 .445-.112l-.288-.408c-.04.028-.065.028-.082.026a.163.163 0 0 1-.088-.052.38.38 0 0 1-.092-.333l-.49-.104zm-.946 1.735a.676.676 0 0 0 .701-.73l-.499.032c.008.12-.08.203-.18.198l-.022.5zm-4.637-11.68c.057-.055.128-.065.212-.024.09.044.169.14.187.258l.494-.078a.855.855 0 0 0-.461-.63.67.67 0 0 0-.78.116l.349.358zM25.241 39.505l-.107.225.09.044.097-.032-.08-.237zm4.24-7.16.244.056-.244-.057zm-2.91-3.575-.195-.157.194.157zm9.584-1.95.047.246-.047-.246zm.33-.884.146-.202-.147.202zm1.707 1.434.224-.11-.224.11zm-.624-.185.124.217-.124-.217zM26.969 39.73l.138.208-.138-.208zm-.114 1.136a7.23 7.23 0 0 0 4.263.532c1.688-.303 3.533-1.251 5.27-3.309l-.383-.322c-1.669 1.977-3.412 2.858-4.975 3.139a6.732 6.732 0 0 1-3.966-.494l-.209.454zm9.532-2.777c3.727-4.415 3.023-8.796 2.03-10.827l-.45.22c.92 1.88 1.62 6.042-1.962 10.285l.382.322zm1.057-11.12c-1.01.577-2.281 1.533-3.407 2.662-1.122 1.125-2.122 2.444-2.555 3.75l.474.158c.398-1.199 1.335-2.452 2.435-3.555 1.097-1.1 2.334-2.028 3.3-2.58l-.247-.435zm-5.962 6.413c-.893 2.689-3.077 5.1-4.65 6.139l.275.417c1.655-1.091 3.916-3.59 4.85-6.399l-.475-.157zm-6.161 6.36c1.242-.415 3.23-2.323 4.404-7.34l-.487-.114c-1.16 4.96-3.083 6.648-4.076 6.98l.159.475zm4.404-7.34c.352-1.503 1.408-2.73 2.675-3.642 1.266-.91 2.715-1.485 3.802-1.693l-.094-.491c-1.16.221-2.676.826-4 1.778-1.324.953-2.48 2.272-2.87 3.934l.487.114zm6.906-6.667c-2.374-1.728-6.875-1.306-10.255 2.879l.389.314c3.266-4.044 7.475-4.314 9.572-2.79l.294-.403zm-10.255 2.879c-2.499 3.094-3.295 5.63-3.22 7.526.076 1.893 1.023 3.136 1.978 3.591l.215-.451c-.76-.363-1.624-1.422-1.693-3.16-.069-1.735.657-4.156 3.109-7.192l-.39-.314zm9.826-1.547a.883.883 0 0 0 .643-.528c.106-.26.077-.593-.214-.804l-.294.404c.064.046.085.114.045.211a.384.384 0 0 1-.274.226l.094.49zm2.214.195a.693.693 0 0 0-.972-.293l.248.434a.194.194 0 0 1 .275.078l.45-.22zM27.064 40.41c-.076-.035-.116-.103-.112-.199a.352.352 0 0 1 .155-.275l-.275-.417a.851.851 0 0 0-.38.675.693.693 0 0 0 .403.67l.209-.454zM32.364 51.975l-.184.17.069.074.1.006.015-.25zm5.806-4.452.205.144-.205-.144zm-1.203-3.87-.122-.218.122.218zm8.32 1.525-.042.247.042-.247zm.62-.704.208-.141-.207.14zm1.004 1.901.249-.016-.25.016zm-.507-.403.036.248-.036-.248zm-12.592 6.729.054.244-.054-.244zm-.516 1.02a6.394 6.394 0 0 0 3.32 1.77c1.47.285 3.263.1 5.32-.992l-.234-.442c-1.966 1.044-3.644 1.204-4.99.944a5.894 5.894 0 0 1-3.06-1.63l-.356.35zm8.64.778c4.457-2.364 5.35-6.131 5.224-8.14l-.499.032c.115 1.841-.7 5.407-4.96 7.666l.235.442zm4.432-8.774c-1.018.147-2.36.513-3.638 1.064-1.274.55-2.511 1.295-3.29 2.216l.38.323c.708-.835 1.863-1.543 3.108-2.08 1.24-.535 2.54-.888 3.512-1.028l-.072-.495zm-6.929 3.28c-1.569 1.853-4.058 3.09-5.682 3.452l.11.488c1.713-.383 4.304-1.669 5.954-3.617l-.382-.323zm-7.09 3.22c1.166.069 3.422-.847 6.026-4.558l-.41-.288c-2.57 3.663-4.683 4.4-5.586 4.347l-.03.499zm6.026-4.558c.756-1.078 1.973-1.726 3.267-2.06 1.294-.334 2.637-.348 3.603-.182l.085-.493c-1.035-.177-2.45-.161-3.813.19-1.362.353-2.703 1.05-3.551 2.258l.409.287zm7.74-3.334c-1.448-2.122-5.209-3.167-9.27-.898l.244.436c3.903-2.18 7.351-1.106 8.612.743l.413-.281zm-9.27-.898c-3.057 1.707-4.544 3.521-5.107 5.101-.562 1.578-.196 2.915.442 3.609l.368-.339c-.493-.536-.85-1.67-.34-3.102.51-1.43 1.89-3.162 4.88-4.833l-.243-.436zm8.4 1.99a.894.894 0 0 0 .789-.264c.192-.205.285-.528.08-.828l-.413.282c.042.061.04.127-.031.203a.393.393 0 0 1-.34.114l-.085.493zm1.915.934a.687.687 0 0 0-.792-.634l.072.495c.12-.018.214.064.221.17l.499-.03zM33.652 53.37c-.057-.058-.07-.134-.032-.222a.358.358 0 0 1 .246-.203l-.109-.488a.858.858 0 0 0-.597.493.688.688 0 0 0 .136.771l.356-.35z" fill="#070707"/>
</svg>
