<svg width="24" height="24" viewBox="0 0 24 24" fill="none" xmlns="http://www.w3.org/2000/svg">
    <path d="m6 7-4 5m0 0 4 5m-4-5h9" stroke="#5A5A5A" stroke-width="1.4" stroke-linecap="round" stroke-linejoin="round"/>
    <path d="m13.342 20.557.115-.69-.115.69zm7.597.19.453.535-.453-.534zM15.014 3.165l-.115-.69.115.69zm5.925.088.453-.534-.453.534zm-7.482.881 1.672-.278-.23-1.381-1.672.278.23 1.381zm7.843 4.95v5.834h1.4V9.083h-1.4zm-6.171 11.062-1.671-.278-.23 1.38 1.67.28.23-1.382zM10.7 8.132v-.743H9.3v.743h1.4zm0 8.48v-.546H9.3v.546h1.4zm2.758 3.255c-.816-.136-1.364-.229-1.771-.35-.388-.116-.563-.234-.679-.371l-1.068.905c.358.423.819.65 1.348.808.51.151 1.159.258 1.94.388l.23-1.38zM9.3 16.61c0 .792-.001 1.45.065 1.978.068.547.217 1.04.575 1.462l1.068-.905c-.116-.137-.204-.329-.254-.73-.053-.422-.054-.977-.054-1.805H9.3zm12-1.694c0 1.665-.002 2.84-.126 3.713-.12.854-.343 1.292-.687 1.584l.905 1.068c.717-.608 1.024-1.44 1.168-2.455.142-.995.14-2.287.14-3.91h-1.4zm-6.402 6.61c1.601.266 2.875.48 3.88.504 1.024.025 1.897-.142 2.614-.75l-.905-1.067c-.344.29-.813.438-1.675.418-.883-.022-2.04-.213-3.683-.487l-.23 1.381zm.23-17.672c1.643-.274 2.802-.465 3.684-.487.862-.02 1.33.127 1.675.418l.905-1.068c-.717-.607-1.59-.774-2.614-.75-1.005.025-2.279.24-3.88.506l.23 1.38zM22.7 9.083c0-1.623.002-2.915-.14-3.91-.143-1.014-.451-1.847-1.168-2.455l-.905 1.068c.344.292.566.73.687 1.584.124.874.126 2.047.126 3.713h1.4zm-9.473-6.33c-.78.13-1.43.236-1.94.388-.528.158-.99.385-1.347.808l1.068.905c.116-.137.291-.255.679-.37.407-.122.955-.215 1.77-.35l-.23-1.382zM10.7 7.388c0-.828.001-1.383.054-1.804.05-.402.138-.594.254-.731L9.94 3.949c-.358.423-.507.915-.575 1.462C9.299 5.94 9.3 6.597 9.3 7.39h1.4z" fill="#5A5A5A"/>
</svg>
