<svg width="24" height="24" viewBox="0 0 24 24" fill="none" xmlns="http://www.w3.org/2000/svg">
    <path fill-rule="evenodd" clip-rule="evenodd" d="M11 5.7a5.3 5.3 0 1 0 0 10.6 5.3 5.3 0 0 0 0-10.6zM4.3 11a6.7 6.7 0 1 1 13.4 0 6.7 6.7 0 0 1-13.4 0z" fill="#5A5A5A"/>
    <path fill-rule="evenodd" clip-rule="evenodd" d="M9.584 7.582A3.7 3.7 0 0 1 11 7.3a.7.7 0 1 1 0 1.4A2.3 2.3 0 0 0 8.7 11a.7.7 0 1 1-1.4 0 3.7 3.7 0 0 1 2.284-3.418zM16.505 16.505a.7.7 0 0 1 .99 0l3 3a.7.7 0 0 1-.99.99l-3-3a.7.7 0 0 1 0-.99z" fill="#5A5A5A"/>
</svg>
