<svg width="24" height="24" viewBox="0 0 24 24" fill="none" xmlns="http://www.w3.org/2000/svg">
    <path fill-rule="evenodd" clip-rule="evenodd" d="M10.444 4h3.112c1.013 0 1.853 0 2.52.103.71.11 1.318.35 1.793.897.463.533.654 1.191.744 1.958.087.746.087 1.696.087 2.88v5.995c0 1.113 0 2.018-.085 2.686-.082.647-.271 1.347-.906 1.702-.685.383-1.36.087-1.876-.253-.52-.344-1.145-.91-1.896-1.59l-.553-.5c-.459-.415-.755-.681-.998-.852-.23-.16-.33-.175-.386-.175-.057 0-.157.015-.386.175-.243.17-.54.437-.998.852l-.553.5c-.752.68-1.377 1.246-1.897 1.59-.516.34-1.19.636-1.875.253-.635-.355-.824-1.055-.906-1.702-.085-.668-.085-1.573-.085-2.686V9.837c0-1.183 0-2.133.087-2.88.09-.766.28-1.424.743-1.957.475-.547 1.084-.787 1.794-.897C8.59 4 9.43 4 10.444 4zM8.138 5.487c-.515.08-.767.22-.95.43-.197.227-.335.559-.41 1.203C6.7 7.776 6.7 8.644 6.7 9.882v5.898c0 1.179.001 1.994.073 2.563.036.28.084.451.13.554.04.086.067.1.072.102V19a.165.165 0 0 0 .028-.004c.064-.013.186-.06.392-.197.419-.277.965-.768 1.775-1.501l.538-.487c.418-.378.78-.705 1.102-.931.346-.242.728-.429 1.19-.429.462 0 .844.187 1.19.429.322.226.684.553 1.101.931l.538.487c.81.733 1.357 1.224 1.776 1.501.206.136.328.184.392.197a.166.166 0 0 0 .027.004h.001c.004-.003.032-.017.071-.103.047-.102.095-.274.13-.554.072-.569.074-1.384.074-2.563V9.882c0-1.238-.001-2.106-.078-2.762-.075-.644-.213-.976-.41-1.202-.184-.212-.435-.352-.95-.431-.547-.085-1.279-.087-2.362-.087h-3c-1.084 0-1.815.002-2.362.087z" fill="#b24629"/>
</svg>
