<svg width="24" height="24" viewBox="0 0 24 24" fill="none" xmlns="http://www.w3.org/2000/svg">
    <path fill-rule="evenodd" clip-rule="evenodd" d="M17.669 6.325A7.933 7.933 0 0 0 12.034 4c-4.392 0-7.966 3.556-7.967 7.928 0 1.397.366 2.761 1.063 3.963L4 20l4.223-1.102a7.986 7.986 0 0 0 3.807.964h.004c4.39 0 7.964-3.556 7.966-7.928 0-2.118-.827-4.11-2.331-5.609zm-5.635 12.198h-.003a6.638 6.638 0 0 1-3.37-.918l-.242-.143-2.506.654.668-2.431-.157-.25a6.55 6.55 0 0 1-1.012-3.507c.001-3.633 2.972-6.59 6.624-6.59 1.769.002 3.431.688 4.682 1.934a6.533 6.533 0 0 1 1.937 4.662c-.002 3.633-2.972 6.59-6.621 6.59zm3.632-4.935c-.2-.1-1.178-.578-1.36-.644-.183-.067-.316-.1-.448.099-.133.198-.514.645-.63.776-.117.133-.233.15-.432.05-.199-.1-.84-.309-1.6-.983a5.976 5.976 0 0 1-1.108-1.373c-.116-.198-.012-.305.087-.404.09-.089.199-.231.299-.347.1-.115.132-.198.199-.33.066-.132.033-.248-.017-.347-.05-.1-.447-1.075-.614-1.471-.161-.386-.326-.334-.447-.34a8.084 8.084 0 0 0-.382-.007.733.733 0 0 0-.531.248c-.183.198-.697.678-.697 1.652 0 .975.713 1.917.813 2.05.1.132 1.404 2.133 3.4 2.991.475.204.846.326 1.136.418.476.15.91.13 1.253.078.383-.057 1.178-.48 1.344-.942.165-.462.165-.86.116-.942-.05-.083-.182-.133-.381-.232z" fill="#fff"/>
</svg>
